<?xml version="1.0" standalone="no"?>
<!DOCTYPE svg PUBLIC "-//W3C//DTD SVG 20010904//EN"
 "http://www.w3.org/TR/2001/REC-SVG-20010904/DTD/svg10.dtd">
<svg version="1.0" xmlns="http://www.w3.org/2000/svg"
 width="1132.000000pt" height="1132.000000pt" viewBox="0 0 1132.000000 1132.000000"
 preserveAspectRatio="xMidYMid meet">
<metadata>
Created by potrace 1.14, written by Peter Selinger 2001-2017
</metadata>
<g transform="translate(0.000000,1132.000000) scale(0.100000,-0.100000)"
fill="#000000" stroke="none">
<path d="M5648 9894 c-2 -2 -21 -5 -43 -8 -21 -3 -41 -9 -44 -14 -6 -9 -36
-23 -59 -28 -8 -1 -21 -6 -30 -10 -9 -4 -21 -8 -27 -10 -13 -4 -89 -33 -200
-79 -49 -20 -97 -38 -106 -40 -8 -2 -35 -12 -60 -23 -46 -21 -77 -33 -94 -38
-5 -1 -55 -21 -110 -44 -55 -23 -104 -43 -110 -44 -5 -1 -20 -8 -32 -14 -13
-7 -23 -9 -23 -5 0 4 -5 2 -12 -5 -7 -7 -20 -12 -30 -12 -10 0 -26 -4 -36 -9
-9 -5 -28 -13 -42 -18 -14 -6 -36 -15 -50 -21 -14 -5 -52 -20 -85 -32 -33 -12
-69 -26 -80 -30 -57 -23 -513 -182 -610 -212 -33 -11 -69 -23 -80 -28 -11 -4
-92 -31 -180 -59 -88 -29 -169 -56 -180 -60 -11 -5 -40 -15 -65 -22 -25 -7
-49 -15 -55 -18 -5 -3 -19 -7 -30 -8 -11 -2 -29 -7 -40 -12 -11 -5 -45 -17
-75 -26 -30 -9 -62 -19 -70 -22 -8 -3 -21 -7 -27 -9 -26 -5 -448 -149 -453
-154 -3 -3 -12 -6 -20 -8 -32 -6 -332 -122 -345 -134 -5 -4 -19 -8 -32 -8 -13
0 -23 -4 -23 -10 0 -5 -6 -10 -14 -10 -8 0 -40 -13 -71 -30 -31 -16 -63 -30
-71 -30 -8 0 -14 -4 -14 -10 0 -5 -9 -10 -19 -10 -11 0 -21 -3 -23 -7 -2 -5
-23 -18 -48 -31 -76 -40 -125 -67 -130 -73 -3 -3 -22 -13 -42 -22 -21 -10 -67
-38 -104 -62 -37 -25 -69 -45 -71 -45 -3 0 -18 -11 -35 -25 -16 -14 -36 -25
-44 -25 -8 0 -14 -4 -14 -8 0 -4 -13 -16 -30 -25 -16 -10 -35 -23 -42 -30 -7
-7 -49 -39 -93 -72 -145 -108 -229 -181 -333 -289 -94 -97 -101 -106 -95 -106
4 0 0 -6 -9 -12 -20 -17 -55 -117 -50 -145 2 -13 10 -23 18 -23 8 0 14 -4 14
-9 0 -5 21 -16 47 -24 86 -28 309 -10 548 44 22 5 56 12 75 15 19 3 44 9 55
14 11 4 47 13 80 20 33 6 69 15 80 19 11 5 40 14 65 21 106 27 460 139 505
159 11 5 58 24 105 42 170 65 581 256 600 278 3 3 30 18 60 34 74 37 114 60
118 70 2 4 8 7 13 7 5 0 64 34 130 75 67 41 123 75 125 75 3 0 31 18 62 39 31
22 91 60 132 87 41 26 108 69 148 95 41 27 78 49 83 49 5 0 9 5 9 10 0 6 5 10
11 10 6 0 30 14 54 30 24 17 48 30 54 30 6 0 11 5 11 10 0 6 8 14 18 18 9 4
35 19 57 33 91 60 222 143 250 159 17 10 81 50 143 89 62 39 117 71 121 71 5
0 11 3 13 8 4 10 236 152 248 152 6 0 10 5 10 10 0 6 5 10 12 10 6 0 25 10 42
23 17 13 38 27 46 30 8 4 29 16 45 27 17 11 41 25 55 32 14 7 27 15 30 18 3 3
16 11 30 19 30 18 278 167 300 180 8 6 47 29 85 52 39 23 96 60 127 81 57 38
73 44 80 31 4 -11 65 -53 76 -53 5 0 17 -9 27 -20 10 -11 23 -20 30 -20 6 0
41 -20 78 -45 37 -25 69 -45 71 -45 8 0 161 -95 164 -102 2 -4 8 -8 13 -8 5 0
38 -18 74 -40 36 -22 69 -40 74 -40 5 0 11 -4 13 -9 2 -7 145 -93 209 -126 10
-5 19 -13 19 -17 0 -5 5 -8 12 -8 6 0 26 -11 43 -25 18 -13 35 -21 39 -18 3 4
6 1 6 -5 0 -7 7 -12 15 -12 8 0 15 -4 15 -10 0 -5 7 -10 15 -10 8 0 15 -4 15
-8 0 -4 16 -14 35 -21 19 -7 35 -15 35 -19 0 -4 17 -16 38 -27 20 -11 39 -23
42 -26 3 -3 20 -14 39 -24 19 -9 39 -21 45 -27 6 -5 40 -27 76 -50 36 -22 95
-60 132 -84 37 -24 72 -44 78 -44 5 0 10 -4 10 -10 0 -5 5 -10 10 -10 6 0 58
-31 115 -70 57 -38 109 -70 115 -70 5 0 10 -4 10 -10 0 -5 4 -10 10 -10 5 0
71 -40 146 -90 75 -49 138 -90 140 -90 2 0 48 -29 102 -63 175 -114 212 -137
222 -137 5 0 10 -4 10 -10 0 -5 4 -10 9 -10 5 0 46 -22 91 -50 45 -27 85 -50
90 -50 5 0 10 -3 12 -7 3 -8 23 -19 245 -134 104 -55 303 -147 353 -164 34
-12 113 -45 132 -55 10 -6 27 -10 37 -10 11 0 23 -4 26 -10 3 -5 13 -10 22
-10 8 0 29 -6 46 -14 29 -14 62 -24 142 -46 17 -4 84 -24 150 -44 222 -67 349
-98 550 -137 160 -30 409 -47 420 -28 4 5 15 9 25 9 10 0 31 10 45 23 20 17
27 34 31 77 4 48 1 61 -25 104 -36 61 -141 180 -201 229 -25 20 -61 51 -80 68
-19 17 -51 43 -70 58 -19 14 -40 31 -46 36 -15 13 -52 41 -159 119 -49 36 -95
70 -102 76 -6 5 -27 18 -45 28 -18 11 -53 33 -78 49 -100 68 -508 283 -536
283 -3 0 -30 11 -60 25 -30 14 -57 25 -59 25 -3 0 -24 9 -48 19 -47 21 -152
60 -272 99 -44 15 -83 31 -87 37 -4 5 -8 7 -8 3 0 -3 -51 11 -112 32 -62 21
-178 58 -258 84 -170 54 -329 106 -350 113 -8 4 -20 7 -27 9 -13 2 -248 81
-273 91 -8 3 -19 7 -25 9 -22 6 -226 76 -335 114 -63 23 -140 49 -170 60 -30
10 -98 35 -150 55 -52 20 -106 41 -120 45 -14 5 -115 43 -225 85 -110 42 -235
89 -277 105 -42 16 -91 35 -110 43 -64 29 -274 110 -357 138 -47 16 -88 34
-92 40 -6 10 -83 21 -91 13z"/>
<path d="M6256 7868 c-62 -9 -148 -61 -198 -120 -22 -27 -37 -48 -34 -48 3 0
-1 -17 -10 -39 -8 -21 -14 -42 -13 -47 1 -5 -2 -20 -8 -34 -6 -14 -10 -95 -9
-182 1 -151 2 -157 25 -182 13 -14 43 -33 67 -42 41 -16 45 -16 71 1 95 62
133 114 161 220 6 22 15 59 22 83 11 42 29 53 47 30 16 -22 3 -201 -18 -239
-5 -11 -7 -19 -5 -19 3 0 -2 -19 -10 -42 -9 -24 -17 -47 -18 -53 -4 -22 -40
-111 -48 -120 -4 -5 -8 -17 -8 -27 0 -10 -4 -18 -9 -18 -5 0 -12 -10 -16 -22
-11 -36 -46 -109 -55 -118 -3 -3 -54 -102 -113 -220 -92 -185 -110 -229 -128
-315 -27 -128 -33 -291 -13 -364 25 -92 88 -163 184 -208 110 -51 341 -88 440
-70 178 32 303 119 385 266 11 20 25 39 30 43 6 4 7 8 3 8 -4 0 -2 15 3 33 24
80 32 140 34 250 3 128 -18 254 -70 417 -15 47 -28 90 -30 95 -1 6 -7 23 -13
38 -7 16 -12 32 -12 37 0 5 -16 57 -35 117 -20 59 -37 115 -38 123 -2 8 -5 20
-9 25 -14 23 -49 213 -54 300 -6 82 -4 95 9 95 8 0 24 -15 35 -32 20 -34 52
-143 52 -180 0 -34 22 -96 42 -117 10 -11 18 -25 18 -31 0 -5 3 -9 8 -8 4 1
19 -2 34 -6 29 -8 98 9 98 25 0 5 6 9 13 10 23 1 87 89 88 122 1 18 3 43 5 57
8 68 4 261 -7 310 -7 30 -12 58 -11 63 1 4 -3 7 -8 7 -6 0 -10 6 -10 14 0 17
-64 74 -97 87 -14 5 -62 12 -107 14 -266 15 -335 18 -467 19 -80 0 -167 -2
-193 -6z"/>
<path d="M4885 7849 c-44 -4 -165 -10 -270 -13 -104 -4 -207 -10 -227 -15 -20
-5 -39 -7 -41 -5 -7 7 -113 -23 -164 -47 -26 -12 -51 -23 -54 -23 -3 -1 -29
-15 -58 -33 -94 -59 -94 -99 3 -291 82 -161 93 -203 90 -332 -3 -114 -35 -210
-141 -430 -81 -166 -104 -215 -151 -320 -37 -83 -56 -180 -55 -286 1 -138 20
-196 91 -275 74 -82 180 -119 345 -119 56 0 118 4 137 9 19 6 49 12 67 14 119
18 284 161 300 261 2 11 8 24 13 30 5 7 12 35 16 65 7 56 24 52 24 -6 0 -44
44 -159 77 -202 42 -55 56 -66 118 -97 52 -25 72 -29 162 -31 126 -2 205 10
368 60 39 12 81 28 94 36 44 28 122 115 144 161 33 72 27 224 -17 385 -13 48
-111 246 -160 323 -44 71 -135 237 -156 287 -36 85 -37 89 -50 135 -18 65 -20
214 -3 294 8 37 29 100 47 140 18 39 39 88 45 109 33 98 -34 181 -161 202 -18
3 -42 8 -52 12 -29 8 -289 10 -381 2z m-105 -319 c0 -5 6 -10 13 -10 17 0 37
-42 37 -75 0 -27 0 -27 -115 -29 -40 -1 -40 -1 -37 34 1 19 7 47 13 63 10 23
17 27 50 27 22 0 39 -4 39 -10z m43 -514 c12 -12 33 -43 46 -71 20 -43 23 -60
18 -135 -3 -47 -7 -96 -10 -110 -3 -14 -8 -46 -11 -71 -4 -25 -9 -57 -11 -70
-2 -13 -13 -77 -25 -141 -11 -64 -20 -138 -20 -165 0 -74 -16 -84 -23 -15 -6
56 -46 222 -67 277 -12 30 -56 197 -65 245 -4 19 -9 81 -12 138 -7 131 0 140
92 139 50 0 69 -5 88 -21z"/>
<path d="M2924 7716 c-33 -12 -60 -24 -62 -28 -2 -5 -12 -8 -22 -8 -10 0 -22
-4 -25 -10 -3 -5 -13 -10 -21 -10 -25 0 -90 -68 -141 -146 -26 -41 -52 -74
-58 -74 -12 0 -110 73 -162 121 -56 51 -105 78 -154 85 -44 6 -67 2 -184 -31
-33 -9 -69 -18 -80 -20 -11 -1 -33 -8 -50 -15 -16 -8 -49 -20 -72 -29 -76 -29
-131 -87 -124 -130 3 -18 26 -41 41 -41 6 0 18 -7 27 -15 8 -8 19 -13 24 -10
5 4 9 1 9 -4 0 -6 7 -11 15 -11 8 0 15 -5 15 -11 0 -5 4 -8 9 -4 5 3 12 1 16
-5 4 -6 11 -8 16 -5 5 4 9 3 9 -2 0 -4 24 -19 53 -33 28 -14 54 -27 57 -31 8
-8 77 -39 89 -39 5 0 14 -6 18 -13 4 -7 23 -20 40 -28 18 -9 60 -39 92 -67 64
-56 65 -59 33 -134 -9 -21 -20 -38 -26 -38 -5 0 -6 -3 -3 -7 4 -3 3 -11 -3
-17 -19 -24 -192 -382 -205 -426 -4 -14 -13 -38 -20 -55 -16 -38 -44 -132 -51
-170 -3 -17 -11 -64 -19 -105 -31 -159 -23 -328 24 -500 11 -41 21 -78 21 -81
0 -9 56 -69 64 -69 4 0 16 -9 28 -20 12 -11 31 -20 43 -20 11 0 25 -4 31 -10
10 -10 68 -18 164 -23 53 -3 132 11 146 26 4 4 15 7 24 7 40 0 194 92 276 165
86 76 87 180 4 370 -40 92 -92 220 -95 237 -2 9 -16 65 -31 125 -31 123 -39
307 -15 352 l13 24 22 -24 c36 -40 66 -86 66 -103 0 -9 4 -16 9 -16 5 0 15
-17 22 -37 6 -21 15 -42 19 -48 4 -5 10 -23 14 -40 4 -16 11 -46 16 -65 43
-170 43 -174 44 -405 1 -227 1 -231 28 -285 28 -60 68 -110 87 -110 7 0 9 -4
6 -10 -3 -5 2 -10 12 -10 11 0 23 -4 28 -8 37 -32 216 -42 299 -17 23 7 43 13
46 13 3 0 12 3 20 6 8 3 34 11 57 18 23 8 55 25 70 39 15 13 40 32 55 42 34
22 86 78 104 112 22 42 33 126 24 180 -5 28 -24 93 -43 145 -19 52 -35 98 -35
103 -1 4 -9 23 -17 43 -8 20 -19 52 -25 73 -10 38 -87 173 -102 179 -4 2 -8
10 -8 18 0 8 -3 14 -7 14 -5 0 -27 28 -50 63 -23 34 -50 71 -60 82 -10 11 -36
43 -58 70 -21 28 -123 135 -225 238 -180 183 -199 209 -167 229 7 4 8 8 4 8
-17 0 88 121 212 243 134 133 155 165 129 206 -7 11 -36 30 -64 41 -69 28
-224 26 -310 -4z"/>
<path d="M7905 7728 c-16 -6 -42 -15 -58 -21 -15 -5 -49 -31 -75 -58 -64 -64
-66 -97 -16 -256 48 -153 54 -231 25 -344 -19 -73 -73 -204 -90 -219 -3 -3
-26 -34 -51 -70 -24 -36 -50 -72 -57 -80 -7 -8 -58 -76 -113 -150 -55 -74
-106 -142 -113 -150 -19 -24 -56 -91 -78 -140 -11 -25 -25 -54 -30 -65 -5 -11
-11 -30 -14 -43 -2 -13 -7 -33 -11 -45 -4 -11 -7 -64 -8 -116 -2 -82 1 -102
21 -144 24 -49 93 -127 112 -127 6 0 11 -3 11 -8 0 -10 53 -31 158 -63 25 -7
100 -13 185 -13 126 -1 149 2 202 22 90 35 145 106 229 297 41 93 52 272 27
480 -13 120 -8 399 8 419 7 9 10 16 7 16 -4 0 -2 9 4 20 18 35 127 52 187 29
53 -20 83 -73 83 -148 0 -44 -32 -167 -61 -236 -7 -16 -13 -32 -14 -35 -4 -18
-47 -128 -55 -142 -6 -10 -10 -22 -10 -27 0 -5 -8 -26 -17 -47 -9 -22 -18 -46
-19 -54 -2 -8 -7 -23 -12 -35 -16 -34 -31 -79 -36 -108 -3 -15 -7 -35 -10 -45
-17 -53 -27 -189 -16 -207 4 -5 7 -23 8 -38 1 -15 6 -36 12 -46 5 -10 6 -21 3
-25 -3 -3 -1 -6 6 -6 7 0 9 -4 6 -10 -3 -5 -1 -10 4 -10 6 0 11 -6 11 -12 0
-36 104 -115 170 -129 22 -5 57 -13 78 -17 55 -12 321 -7 383 8 149 34 210
105 255 296 33 143 13 342 -51 507 -8 20 -12 37 -9 37 4 0 1 6 -5 13 -6 8 -12
22 -14 33 -2 10 -7 26 -10 34 -28 69 -69 207 -92 305 -15 64 -20 251 -7 259 4
2 9 19 10 36 2 32 56 160 71 170 15 10 97 144 114 188 23 58 21 81 -9 127 -19
30 -42 47 -87 67 -81 36 -117 45 -267 72 -25 4 -118 14 -195 21 -187 17 -295
28 -320 35 -47 11 -326 10 -360 -2z m555 -339 c0 -5 6 -9 13 -9 18 0 37 -43
37 -82 0 -23 -4 -29 -16 -24 -9 3 -48 6 -88 6 -91 0 -116 14 -97 56 22 50 42
61 99 61 28 0 52 -4 52 -8z"/>
<path d="M6020 5265 c-19 -9 -64 -47 -101 -85 -62 -65 -68 -76 -89 -152 -31
-116 -40 -350 -15 -398 21 -40 31 -50 67 -69 47 -24 87 -16 129 25 22 21 39
44 39 51 0 8 6 16 14 19 20 8 51 78 66 149 16 72 26 95 44 95 8 0 17 -8 22
-17 9 -21 13 -133 5 -148 -7 -13 -10 -30 -15 -75 -3 -19 -11 -54 -20 -77 -8
-24 -13 -43 -9 -43 3 0 1 -6 -4 -12 -6 -7 -22 -45 -37 -84 -15 -39 -75 -170
-135 -290 -166 -337 -169 -345 -186 -435 -9 -46 -20 -98 -24 -115 -19 -72 4
-324 29 -324 4 0 11 -10 14 -22 19 -71 143 -147 301 -184 86 -20 256 -26 315
-11 19 5 42 10 50 11 8 2 33 11 55 21 22 10 42 19 45 19 21 5 106 75 133 110
146 191 180 441 103 761 -8 37 -60 192 -66 200 -4 6 -7 17 -8 25 0 8 -25 89
-56 179 -57 167 -84 261 -91 312 -2 16 -6 36 -9 46 -12 42 -16 163 -5 163 34
0 89 -129 89 -208 0 -74 69 -172 121 -172 42 0 109 41 130 80 11 19 28 49 38
65 13 22 19 55 22 120 7 176 2 282 -13 291 -4 3 -8 14 -8 25 0 31 -29 81 -64
112 -55 48 -90 52 -480 55 -308 2 -366 0 -396 -13z"/>
<path d="M4805 5248 c-55 -4 -160 -9 -234 -13 -74 -3 -137 -8 -141 -10 -3 -2
-49 -5 -102 -6 -170 -3 -304 -38 -378 -97 -25 -20 -46 -40 -48 -44 -2 -5 -9
-8 -14 -8 -6 0 -24 -14 -40 -32 -41 -46 -38 -94 12 -188 23 -41 60 -113 83
-160 l42 -85 -1 -140 c0 -136 -1 -143 -36 -235 -19 -52 -45 -113 -56 -135 -11
-22 -32 -67 -47 -100 -15 -33 -49 -105 -75 -160 -26 -55 -53 -118 -60 -140 -7
-22 -15 -44 -19 -50 -3 -5 -6 -14 -7 -20 -1 -5 -7 -32 -13 -59 -32 -136 -3
-334 59 -406 16 -19 30 -38 30 -42 0 -5 5 -8 11 -8 6 0 25 -11 42 -23 63 -46
123 -61 252 -62 66 0 145 3 176 7 68 9 165 44 189 68 10 10 21 16 23 13 3 -3
18 14 33 36 15 23 41 56 58 74 30 33 76 135 76 169 0 9 4 19 9 22 5 4 8 17 6
31 -1 14 1 27 5 30 3 2 7 -16 9 -40 3 -60 5 -71 36 -149 41 -101 114 -172 206
-199 47 -14 214 -16 284 -3 75 14 240 59 245 67 3 4 17 10 32 14 14 4 37 19
51 33 40 43 113 155 125 193 18 54 4 275 -19 304 -4 6 -9 22 -11 35 -2 14 -17
53 -32 87 -16 34 -28 65 -27 68 1 3 -3 11 -9 18 -6 6 -28 41 -48 77 -21 36
-63 108 -94 160 -73 125 -129 227 -132 242 -2 7 -9 27 -16 43 -30 72 -39 131
-36 244 3 137 5 146 58 270 52 120 55 170 15 222 -15 20 -40 41 -55 47 -94 35
-259 51 -417 40z m-218 -350 c15 -7 36 -20 46 -28 18 -16 23 -49 7 -51 -5 -1
-14 -2 -19 -3 -5 0 -13 -4 -17 -8 -4 -5 -29 -8 -56 -8 -51 0 -54 4 -49 60 5
49 34 62 88 38z m33 -501 c26 -13 53 -38 77 -74 23 -35 23 -221 -1 -353 -2
-14 -10 -63 -16 -110 -7 -47 -15 -94 -19 -105 -4 -11 -8 -58 -10 -105 -1 -47
-6 -88 -10 -92 -4 -4 -6 7 -6 25 1 17 -2 41 -5 52 -4 11 -10 38 -13 60 -3 22
-10 52 -15 65 -5 14 -10 28 -11 32 -3 15 -59 201 -71 238 -24 70 -42 165 -47
248 -5 79 -3 95 11 111 20 22 95 26 136 8z"/>
<path d="M7767 5165 c-73 -13 -165 -53 -172 -76 -3 -9 -14 -27 -25 -39 -37
-43 -45 -96 -24 -180 9 -41 21 -80 25 -85 16 -22 49 -167 49 -215 0 -119 -47
-249 -133 -372 -119 -169 -253 -353 -259 -356 -5 -2 -8 -8 -8 -13 0 -6 -15
-33 -33 -62 -18 -29 -46 -80 -62 -114 -15 -34 -31 -60 -35 -58 -4 2 -7 -2 -7
-10 0 -8 5 -11 11 -8 6 4 5 0 -2 -9 -7 -9 -14 -27 -16 -40 -1 -13 -6 -29 -10
-36 -12 -20 -15 -193 -3 -222 30 -76 43 -98 77 -131 93 -90 184 -120 390 -124
163 -4 233 11 291 63 41 36 114 148 124 192 1 3 5 12 8 20 26 61 48 134 56
185 9 58 7 297 -3 313 -3 5 -7 42 -11 83 -3 40 -8 85 -11 98 -9 42 -5 205 6
258 12 56 28 75 68 81 15 2 31 7 37 11 5 4 15 7 20 6 82 -13 98 -20 122 -50
15 -18 28 -41 30 -52 7 -31 4 -154 -4 -166 -4 -7 -9 -21 -10 -32 -2 -11 -6
-27 -10 -35 -3 -8 -8 -24 -10 -34 -2 -11 -7 -24 -12 -30 -7 -9 -14 -30 -27
-81 -1 -5 -10 -28 -19 -50 -37 -86 -40 -93 -48 -127 -6 -25 -30 -93 -36 -103
-3 -5 -6 -18 -7 -27 -1 -10 -2 -19 -3 -20 -1 -2 -10 -33 -20 -70 -20 -78 -22
-268 -3 -291 7 -8 10 -16 7 -19 -3 -3 1 -11 10 -18 8 -7 15 -19 15 -27 0 -8 7
-21 15 -29 8 -8 20 -23 27 -32 57 -74 160 -103 368 -102 133 0 178 3 220 15 8
2 30 7 48 10 44 7 102 45 134 87 56 74 99 256 93 398 -4 93 -27 219 -52 280
-8 18 -7 29 1 39 8 12 8 13 -2 7 -12 -7 -20 4 -26 36 -2 7 -6 20 -9 28 -13 31
-89 244 -92 254 -1 6 -4 18 -8 26 -11 31 -27 106 -32 150 -3 25 -8 59 -11 76
-11 58 30 226 64 267 8 9 11 17 6 17 -5 0 -4 4 2 8 41 29 138 223 138 277 0
26 -17 72 -32 90 -29 34 -156 85 -252 101 -124 22 -165 26 -325 39 -83 7 -200
17 -345 31 -112 11 -183 10 -253 -1z m518 -371 c14 -9 25 -23 25 -30 0 -8 5
-14 10 -14 6 0 10 -10 10 -21 0 -19 -4 -21 -31 -15 -17 3 -62 6 -100 6 -59 0
-68 3 -74 20 -17 52 102 92 160 54z"/>
<path d="M2914 5130 c-22 -5 -65 -11 -95 -14 -30 -3 -103 -12 -164 -21 -60 -9
-123 -18 -140 -20 -118 -17 -189 -38 -223 -69 -18 -17 -40 -31 -49 -32 -9 -2
-19 -8 -23 -14 -4 -7 -10 -11 -14 -11 -3 1 -20 -14 -37 -34 -54 -61 -71 -161
-49 -285 31 -176 40 -214 58 -248 46 -89 178 -103 209 -22 8 20 16 28 26 24
39 -14 95 89 99 181 1 49 17 63 19 18 1 -16 4 -41 6 -58 6 -35 5 -115 -1 -165
-3 -19 -8 -53 -10 -75 -3 -22 -8 -53 -11 -70 -3 -16 -7 -39 -9 -50 -2 -11 -6
-27 -9 -35 -3 -8 -8 -31 -10 -51 -2 -19 -10 -45 -16 -57 -6 -12 -10 -22 -7
-22 2 0 -3 -21 -11 -47 -19 -63 -24 -85 -25 -103 -1 -8 -4 -17 -8 -20 -4 -3
-10 -21 -13 -40 -3 -19 -7 -42 -11 -50 -3 -8 -8 -26 -10 -40 -3 -14 -10 -44
-16 -68 -6 -24 -8 -47 -5 -53 4 -5 1 -9 -5 -9 -9 0 -10 -37 -7 -132 3 -73 8
-144 10 -158 3 -14 7 -36 10 -50 7 -36 37 -120 54 -155 22 -42 102 -117 148
-139 42 -21 187 -48 179 -34 -3 4 0 8 5 8 6 0 11 -4 11 -9 0 -15 226 -11 277
4 24 7 46 13 49 13 12 0 114 46 114 52 0 3 16 14 35 24 19 10 32 23 29 27 -3
5 -1 9 5 9 6 0 24 15 40 33 17 17 50 54 74 80 71 76 86 125 85 268 0 67 -7
149 -14 182 -19 78 -63 207 -80 232 -8 11 -14 27 -14 37 0 10 -5 18 -11 18 -5
0 -8 3 -5 8 2 4 -9 26 -25 50 -16 23 -29 45 -29 47 0 4 -138 250 -160 285 -55
88 -138 245 -142 268 -2 9 -7 20 -11 23 -5 3 -9 12 -10 20 -2 8 -5 19 -9 24
-9 15 -38 118 -35 122 5 5 72 -134 88 -182 7 -22 19 -45 26 -51 7 -6 10 -14 6
-17 -3 -4 -2 -7 3 -7 5 0 22 -11 37 -24 19 -16 37 -23 55 -21 15 2 32 4 39 4
6 1 33 21 60 45 26 24 61 55 78 69 37 31 40 78 14 227 -33 188 -82 293 -157
341 -43 27 -53 29 -136 28 -50 -1 -109 -5 -132 -9z"/>
<path d="M629 3058 c-18 -3 -37 -4 -40 -2 -4 2 -9 0 -11 -6 -1 -5 -20 -10 -41
-12 -21 -1 -41 -6 -43 -10 -3 -4 -16 -8 -29 -8 -13 0 -27 -4 -30 -10 -3 -5
-13 -10 -22 -10 -24 0 -133 -51 -133 -63 0 -6 -3 -7 -7 -4 -6 7 -86 -53 -111
-83 -26 -31 -62 -110 -62 -137 0 -70 61 -166 92 -147 12 7 10 44 -2 44 -5 0
-10 17 -10 38 0 66 54 131 151 182 32 17 59 28 59 24 0 -4 6 -1 14 5 18 15
174 61 209 61 19 0 27 -5 28 -17 0 -10 2 -150 4 -311 2 -161 6 -308 9 -327 l7
-34 -48 -7 c-57 -10 -51 -8 -88 -23 -16 -6 -42 -16 -57 -22 -16 -7 -28 -15
-28 -20 0 -5 -6 -9 -12 -9 -27 -1 -49 -49 -46 -99 2 -27 5 -49 8 -48 3 1 15
-5 28 -12 21 -11 167 -13 156 -2 -2 2 17 12 44 21 74 27 182 81 216 110 9 6
20 9 26 5 6 -4 9 -1 8 6 -2 7 7 18 19 24 13 7 20 15 16 18 -3 4 0 7 9 7 19 0
172 149 231 226 82 109 138 240 132 311 -16 191 -90 280 -274 330 -60 16 -311
24 -372 11z m275 -45 c8 -8 31 -13 64 -15 12 0 22 -4 22 -8 0 -3 7 -7 15 -8 8
-1 22 -3 30 -4 8 -1 15 -6 15 -11 0 -5 -12 -6 -27 -2 -16 4 -97 9 -180 12 -87
3 -153 9 -153 15 0 5 -4 6 -10 3 -5 -3 -10 1 -10 9 0 14 17 16 113 16 63 0
117 -3 121 -7z m-256 -20 c-2 -13 -19 -21 -59 -29 -75 -15 -208 -58 -262 -85
-23 -12 -66 -39 -95 -61 -49 -37 -55 -32 -19 14 18 23 152 100 202 116 22 7
49 17 60 22 47 19 105 32 118 27 7 -3 20 -1 28 4 22 14 31 11 27 -8z m357 -77
c109 -37 160 -75 170 -127 8 -43 -55 -228 -92 -267 -6 -6 -15 -21 -18 -32 -3
-11 -10 -20 -15 -20 -5 0 -11 -8 -14 -17 -3 -10 -35 -49 -71 -88 -35 -38 -64
-73 -65 -77 0 -5 -7 -8 -15 -8 -8 0 -15 -4 -15 -9 0 -5 -28 -30 -62 -56 -55
-41 -63 -44 -76 -31 -12 12 -13 21 -6 38 16 35 7 659 -9 675 -4 3 -7 15 -7 26
0 18 6 19 123 15 77 -3 140 -11 172 -22z m-300 -777 c-4 -5 -13 -9 -21 -9 -8
0 -14 -4 -14 -10 0 -5 -9 -10 -20 -10 -11 0 -20 -5 -20 -11 0 -5 -4 -8 -9 -5
-4 3 -17 -1 -27 -9 -10 -8 -33 -15 -51 -15 -17 0 -35 -4 -38 -10 -10 -16 -42
-12 -42 5 0 8 6 15 14 15 7 0 13 4 13 8 0 11 91 43 138 49 20 3 38 6 39 7 8 7
42 3 38 -5z"/>
<path d="M4689 2744 c-39 -47 31 -241 99 -276 31 -15 36 -15 71 0 64 29 125
92 165 169 21 41 20 43 -5 43 -15 0 -19 4 -15 15 3 8 9 22 12 30 4 9 -1 18
-12 22 -12 4 -24 -2 -40 -22 -12 -16 -22 -32 -21 -36 1 -4 -17 -27 -40 -51
-72 -76 -127 -60 -158 46 -19 65 -36 84 -56 60z"/>
<path d="M4352 2672 c-8 -23 -7 -37 4 -57 8 -15 14 -36 14 -46 0 -28 49 -38
67 -14 17 24 17 30 -5 90 -14 41 -23 51 -44 53 -21 3 -28 -3 -36 -26z"/>
<path d="M8108 2582 c-8 -9 -13 -43 -13 -89 0 -52 -4 -73 -13 -73 -7 0 -25
-18 -40 -40 -15 -21 -40 -46 -57 -54 -41 -20 -62 -5 -87 63 -11 29 -37 70 -57
90 -31 31 -42 36 -76 34 -60 -4 -65 -6 -65 -15 0 -4 -5 -8 -12 -8 -17 0 -65
-58 -73 -88 -3 -15 -17 -44 -31 -64 -13 -21 -24 -41 -24 -44 0 -21 -106 -94
-136 -94 -47 0 -66 30 -71 111 -6 98 -29 161 -56 157 -21 -3 -68 -72 -107
-157 -11 -24 -22 -42 -24 -40 -2 2 -6 25 -9 50 -7 60 -32 119 -51 119 -9 0
-33 -28 -53 -61 -21 -34 -46 -71 -55 -83 -17 -20 -17 -19 -18 41 0 34 -4 64
-9 67 -4 3 -11 19 -14 36 -4 16 -12 30 -20 30 -18 0 -37 -20 -37 -39 0 -110
-151 -246 -260 -235 -57 5 -71 24 -69 89 3 76 38 134 83 135 12 0 16 -5 13
-14 -3 -8 1 -17 9 -20 8 -3 14 -15 14 -26 0 -23 38 -28 58 -8 25 25 6 125 -31
166 -19 20 -69 21 -92 2 -6 -5 -14 -8 -17 -5 -11 12 -81 -72 -114 -137 -38
-76 -76 -117 -132 -145 -29 -14 -51 -16 -110 -11 -8 1 -6 8 7 22 27 30 60 95
67 133 9 49 -31 162 -63 174 -50 19 -99 -3 -137 -62 -21 -33 -46 -159 -35
-179 4 -8 10 -26 13 -40 19 -90 119 -168 200 -156 50 8 122 42 156 73 29 27
40 29 40 8 0 -9 20 -35 44 -60 62 -62 88 -62 234 -4 17 7 32 17 32 21 0 4 4 8
10 8 5 0 23 14 38 30 36 37 42 37 42 4 0 -29 27 -81 47 -88 13 -6 73 51 73 70
0 5 10 21 23 34 12 14 21 27 19 30 -2 2 1 6 5 7 5 2 10 -20 12 -49 1 -29 6
-54 12 -56 5 -2 9 -10 9 -17 0 -22 42 -30 55 -11 7 9 17 16 23 16 6 0 9 7 6
15 -4 8 -1 15 5 15 6 0 11 5 11 11 0 6 14 31 30 56 17 24 30 48 30 54 0 5 3 9
8 9 7 0 47 -119 43 -133 -1 -5 3 -6 8 -3 5 4 13 0 18 -8 4 -8 21 -21 36 -29
50 -26 130 -2 195 59 20 19 39 34 43 34 9 0 35 -63 31 -75 -2 -5 0 -7 3 -3 4
4 22 -4 41 -18 74 -57 177 -29 217 57 20 46 23 47 68 51 47 3 50 -2 19 -32 -7
-7 -65 -155 -80 -202 -10 -33 -15 -202 -7 -238 7 -34 30 -96 40 -107 5 -7 7
-13 4 -13 -9 0 60 -68 81 -79 11 -6 46 -11 76 -11 47 0 60 4 78 25 11 13 25
22 30 19 5 -3 8 -2 7 3 -1 4 3 21 10 38 38 93 37 219 -5 446 l-6 36 65 0 c39
0 72 5 81 12 8 7 21 9 27 5 8 -4 9 -3 5 4 -4 7 -2 12 4 12 25 0 90 65 109 110
25 58 25 82 3 135 -34 80 -69 107 -135 104 -40 -3 -51 -6 -97 -29 -11 -5 -26
-10 -34 -10 -7 0 -19 -7 -26 -15 -25 -30 -40 -17 -40 34 0 28 -5 53 -10 56 -6
4 -10 12 -9 18 5 45 -28 70 -53 39z m-1465 -119 c-7 -2 -19 -2 -25 0 -7 3 -2
5 12 5 14 0 19 -2 13 -5z m-386 -35 c-2 -12 -9 -24 -15 -26 -6 -2 -9 -9 -6
-16 6 -15 -20 -68 -29 -59 -4 3 -7 -1 -7 -10 0 -9 -6 -17 -12 -17 -21 0 -10
104 13 129 27 29 60 28 56 -1z m352 19 c-2 -1 -12 -9 -22 -16 -15 -12 -17 -12
-11 3 3 9 13 16 22 16 8 0 13 -1 11 -3z m1724 -24 c-7 -2 -19 -2 -25 0 -7 3
-2 5 12 5 14 0 19 -2 13 -5z m-498 -38 c27 -28 33 -47 13 -42 -16 3 -68 48
-68 59 0 17 30 7 55 -17z m445 15 c-8 -5 -19 -10 -25 -10 -5 0 -3 5 5 10 8 5
20 10 25 10 6 0 3 -5 -5 -10z m145 -34 c18 -13 18 -15 1 -59 -36 -96 -82 -119
-215 -108 -8 1 -11 8 -8 21 3 11 2 20 -2 20 -4 0 -8 13 -9 29 -2 23 5 34 29
52 80 57 163 75 204 45z m-689 -52 c-3 -8 -2 -13 3 -10 4 3 19 -6 31 -19 13
-14 28 -25 32 -25 18 0 38 -29 32 -45 -14 -35 -88 -50 -106 -21 -4 6 -8 7 -8
1 0 -5 -8 2 -18 18 -24 36 -29 125 -8 133 9 3 13 11 9 18 -3 6 4 1 16 -12 13
-13 20 -30 17 -38z m387 -136 c3 -18 10 -62 15 -98 6 -36 13 -72 16 -80 17
-45 32 -350 17 -350 -5 0 -11 -9 -14 -21 -3 -11 -15 -23 -26 -26 -12 -3 -21
-10 -21 -15 0 -5 -6 -6 -12 -1 -7 4 -19 8 -26 9 -23 4 -50 35 -74 83 -19 39
-23 62 -23 156 0 61 4 119 9 130 5 11 10 22 11 25 1 3 7 18 13 33 7 16 12 34
12 42 0 7 3 15 8 17 4 2 18 24 32 51 13 26 28 47 32 47 5 0 7 3 7 8 -2 14 1
22 10 22 5 0 11 -15 14 -32z"/>
<path d="M5586 2573 c-4 -10 -6 -68 -5 -131 1 -101 -1 -116 -19 -135 -23 -25
-112 -162 -112 -172 0 -4 -6 -21 -14 -38 -39 -86 -58 -179 -53 -266 5 -105 9
-118 44 -182 40 -75 86 -109 146 -109 65 0 101 21 134 78 27 45 28 52 28 177
-1 105 -8 220 -15 220 -1 0 -3 8 -5 18 -2 9 1 17 7 17 5 0 2 7 -6 16 -33 32
-20 44 43 41 128 -6 254 99 254 213 0 53 -36 126 -75 150 -35 21 -122 28 -133
10 -3 -5 -17 -10 -30 -10 -13 0 -25 -3 -27 -7 -4 -10 -63 -43 -75 -43 -5 0 -8
14 -5 31 2 16 -3 55 -13 85 -14 45 -21 54 -40 54 -13 0 -26 -8 -29 -17z m184
-167 c0 -2 -7 -7 -16 -10 -8 -3 -12 -2 -9 4 6 10 25 14 25 6z m138 -34 c16
-10 8 -82 -10 -94 -7 -4 -9 -8 -4 -8 4 0 -8 -16 -29 -37 -34 -34 -40 -36 -100
-36 -36 -1 -67 2 -71 6 -26 25 -14 123 14 112 6 -2 12 2 12 10 0 8 9 15 21 15
11 0 17 5 14 10 -4 6 5 10 19 10 14 0 26 5 26 10 0 12 89 13 108 2z m-288
-258 c6 -38 15 -100 20 -137 5 -38 12 -72 15 -77 3 -5 6 -66 7 -134 1 -135 0
-139 -58 -169 -30 -15 -32 -15 -66 13 -97 80 -111 275 -32 453 10 20 21 37 26
37 5 0 7 4 3 9 -3 5 2 16 10 25 9 8 16 19 17 23 0 4 8 18 16 31 20 31 28 16
42 -74z"/>
<path d="M10878 2532 c-16 -2 -28 -8 -28 -13 0 -6 -5 -7 -10 -4 -6 3 -13 -1
-16 -9 -3 -9 -11 -16 -16 -16 -12 0 -68 -61 -68 -73 0 -21 -20 7 -20 29 0 13
-4 24 -10 24 -5 0 -9 3 -9 8 6 35 -3 52 -26 52 -14 0 -25 -1 -26 -2 0 -2 -3
-36 -5 -76 -5 -79 -23 -120 -84 -185 -33 -37 -86 -67 -117 -67 -8 0 -25 11
-38 25 -21 20 -25 34 -25 86 0 75 -27 159 -52 159 -18 0 -41 -29 -79 -100 -13
-25 -29 -52 -35 -60 -7 -8 -13 -19 -13 -25 0 -5 -4 -11 -10 -13 -7 -2 -11 17
-11 54 0 62 -25 144 -44 144 -21 0 -36 -23 -36 -53 0 -28 -32 -98 -57 -125 -7
-7 -13 -17 -13 -21 0 -4 -16 -24 -35 -44 -34 -36 -67 -47 -80 -27 -13 21 -15
85 -3 116 9 27 9 37 0 46 -7 7 -12 20 -12 30 0 10 -12 24 -27 32 -31 16 -76
53 -71 58 1 2 -5 14 -14 27 -23 33 -44 15 -50 -42 -10 -90 -81 -200 -158 -246
-40 -24 -67 -26 -92 -7 -26 19 -22 34 12 41 29 6 40 28 20 40 -5 3 -10 15 -10
26 0 13 -10 24 -31 31 -20 7 -28 15 -25 25 3 8 -1 29 -8 48 -8 18 -12 35 -10
38 9 9 -26 29 -41 23 -11 -4 -15 -21 -15 -66 0 -33 -3 -60 -7 -61 -62 -7 -106
-3 -110 11 -3 8 -9 24 -13 35 -5 11 -12 30 -15 43 -5 17 -13 22 -28 20 -17 -2
-24 -13 -30 -43 -26 -122 -134 -236 -209 -220 -20 5 -26 10 -18 15 6 4 11 11
10 16 0 5 2 18 5 29 23 68 -1 170 -42 186 -13 5 -23 13 -23 19 0 29 -33 44
-97 44 -36 -1 -68 -5 -71 -10 -4 -5 -20 -16 -35 -24 -40 -20 -86 -69 -104
-110 -8 -19 -19 -42 -23 -51 -16 -31 -4 -105 24 -153 37 -63 87 -86 163 -74
30 5 71 19 92 32 l38 24 33 -19 c40 -25 96 -27 137 -6 17 9 34 13 38 9 5 -4 6
-2 3 3 -2 6 15 27 39 49 l43 39 0 -45 c0 -34 6 -52 25 -72 39 -42 55 -22 55
69 0 83 2 85 80 85 48 0 60 -9 60 -46 0 -13 17 -38 52 -75 9 -9 14 -19 12 -21
-15 -16 111 -10 142 6 15 8 31 13 36 10 5 -3 7 -1 6 4 -2 4 13 25 32 44 47 49
58 63 72 93 6 14 15 25 20 25 4 0 8 7 8 15 0 16 17 19 44 9 9 -3 13 -10 10
-16 -5 -8 -6 -81 -1 -150 1 -16 7 -28 13 -28 6 0 17 -11 24 -25 7 -13 22 -27
32 -31 21 -6 93 28 121 57 10 11 23 16 29 13 6 -4 8 -3 4 4 -3 6 0 16 7 24 7
7 18 22 25 33 11 19 11 18 13 -7 1 -16 2 -36 3 -45 1 -23 39 -63 59 -63 13 0
88 98 92 120 1 3 12 23 25 44 l24 40 11 -45 c15 -56 60 -126 89 -136 31 -10
93 -5 124 11 15 8 45 32 67 55 46 46 57 50 55 19 -4 -46 0 -65 19 -87 29 -34
55 -24 59 22 4 42 21 48 52 17 39 -39 94 -67 125 -63 41 5 114 32 147 54 14
11 29 19 32 19 3 0 23 18 46 40 22 21 40 37 40 33 0 -3 14 19 30 50 35 65 35
67 15 67 -11 0 -14 7 -9 25 4 15 2 25 -4 25 -6 0 -17 3 -26 6 -10 4 -16 1 -16
-8 0 -8 -17 -41 -39 -74 -39 -59 -117 -118 -172 -129 -44 -9 -97 6 -135 39
l-37 32 17 32 c9 17 17 35 17 39 1 5 5 7 10 6 4 -2 6 3 3 10 -6 16 39 67 58
67 7 0 21 -18 31 -40 11 -26 23 -40 36 -40 26 0 51 55 41 89 -28 94 -48 112
-112 103z m-2050 -69 c-10 -2 -28 -2 -40 0 -13 2 -5 4 17 4 22 1 32 -1 23 -4z
m-68 -8 c0 -2 -10 -9 -22 -15 -22 -11 -22 -10 -4 4 21 17 26 19 26 11z m84
-62 c-4 -15 -8 -61 -8 -102 -1 -55 -4 -75 -13 -73 -7 1 -13 -1 -13 -6 0 -9
-57 -34 -84 -36 -39 -3 -66 23 -66 64 0 51 19 100 38 101 12 0 13 2 4 6 -17 6
36 53 60 53 9 0 20 5 23 10 3 6 20 10 36 10 27 0 29 -2 23 -27z"/>
<path d="M2127 2498 c-15 -19 -27 -39 -27 -45 0 -6 -9 -32 -19 -59 -10 -27
-25 -69 -32 -93 -16 -53 -44 -91 -69 -91 -22 0 -27 22 -29 143 -1 50 -6 96
-12 102 -5 5 -9 19 -9 32 0 13 -3 23 -7 24 -5 0 -16 2 -25 4 -23 4 -43 -20
-68 -85 -42 -107 -78 -177 -95 -183 -9 -4 -14 -11 -11 -16 6 -9 -51 -27 -60
-19 -2 3 5 32 16 66 19 58 19 63 4 102 -9 22 -20 40 -25 40 -4 0 -16 -16 -25
-36 -10 -20 -26 -39 -36 -42 -10 -2 -18 -8 -18 -12 0 -10 -46 -19 -59 -11 -5
4 -19 32 -31 65 -30 78 -76 125 -129 130 -26 2 -44 -1 -52 -10 -6 -8 -18 -14
-26 -14 -18 0 -51 -31 -68 -63 -13 -26 -28 -96 -28 -132 0 -84 64 -187 124
-200 17 -4 26 -11 23 -17 -5 -7 -2 -8 5 -3 7 4 25 8 40 9 16 1 41 11 57 21 16
11 32 18 37 17 4 -1 7 4 7 11 0 19 24 67 33 67 5 0 5 5 2 10 -4 6 10 10 34 10
35 0 40 -3 46 -29 3 -16 17 -41 31 -54 28 -28 90 -41 98 -20 3 7 11 13 18 13
7 0 19 9 26 20 7 12 18 18 24 14 6 -4 8 -3 4 4 -3 6 0 16 7 24 12 12 38 53 43
68 1 3 5 15 9 28 12 37 25 25 25 -23 0 -54 19 -104 51 -134 63 -58 155 12 195
149 6 23 9 20 25 -28 36 -104 91 -158 149 -147 36 7 93 36 111 57 23 26 41 22
61 -11 18 -33 66 -62 107 -65 14 -1 32 -6 40 -10 10 -6 12 -5 7 2 -4 7 -1 12
7 12 7 0 36 11 63 25 56 29 77 31 97 10 43 -43 141 -14 214 63 l42 45 11 -29
c6 -16 27 -46 47 -66 60 -62 125 -62 187 -2 l36 35 31 -36 c24 -27 39 -35 65
-35 36 0 84 18 84 32 0 4 7 8 15 8 8 0 15 5 15 10 0 17 29 11 39 -9 30 -55
115 -41 184 30 42 42 59 49 56 22 -4 -41 2 -84 10 -79 5 3 11 -1 15 -9 3 -8
14 -15 25 -15 24 0 30 19 33 105 l3 60 55 3 55 2 28 -57 c33 -68 62 -92 117
-97 43 -4 105 28 162 82 15 14 29 24 31 21 2 -2 18 -25 35 -50 61 -91 135 -83
250 25 l42 40 0 -38 c0 -43 25 -92 50 -99 20 -5 53 34 90 106 14 26 29 47 33
47 5 0 6 4 3 9 -3 4 2 16 12 24 16 15 18 15 19 -5 3 -36 52 -125 79 -143 43
-28 102 -25 151 8 24 16 47 26 52 23 5 -3 8 2 7 12 0 9 5 16 12 14 8 -1 11 2
8 7 -3 5 1 14 9 21 29 24 75 101 75 126 0 16 -4 23 -11 18 -6 -4 -9 1 -8 12 4
21 -7 44 -21 44 -4 0 -22 -26 -40 -57 -31 -55 -118 -149 -128 -138 -3 3 -11 0
-18 -6 -18 -15 -67 -2 -82 22 -7 11 -13 46 -13 77 0 62 -26 152 -47 159 -15 6
-52 -24 -52 -42 0 -7 -7 -16 -16 -19 -9 -4 -14 -9 -11 -12 3 -3 -8 -27 -24
-54 -16 -26 -29 -52 -29 -59 0 -6 -4 -11 -10 -11 -6 0 -10 30 -10 70 0 39 -4
70 -9 70 -5 0 -11 12 -13 28 -4 38 -40 42 -56 7 -7 -15 -10 -30 -7 -35 10 -16
-38 -103 -82 -147 -31 -32 -85 -63 -110 -63 -39 0 -50 23 -52 107 -1 43 -6 82
-12 88 -5 5 -9 19 -9 31 0 25 -27 39 -45 24 -7 -6 -15 -28 -18 -49 -5 -41 -53
-120 -96 -158 -37 -33 -98 -48 -128 -32 -32 17 -29 38 7 46 21 4 30 11 30 24
0 11 -4 19 -10 19 -5 0 -10 12 -10 26 0 16 -5 24 -12 22 -16 -6 -38 15 -38 35
0 7 -7 34 -16 60 -11 33 -21 47 -34 47 -23 0 -30 -19 -30 -81 0 -32 -4 -49
-12 -50 -7 -1 -29 -2 -48 -3 -19 -1 -41 -5 -49 -10 -11 -7 -13 -5 -8 9 7 17
-8 78 -26 102 -15 20 -47 10 -54 -17 -4 -14 -6 -30 -5 -37 5 -24 -58 -124
-108 -173 -34 -33 -70 -43 -88 -26 -4 4 -9 49 -10 99 -2 51 -7 97 -12 102 -4
6 -10 22 -14 38 -8 34 -30 35 -52 2 -11 -18 -15 -43 -13 -97 4 -102 -16 -141
-74 -152 -46 -8 -57 14 -57 114 0 49 -4 92 -10 95 -5 3 -10 15 -10 25 0 29
-35 44 -54 24 -18 -17 -19 -30 -18 -124 2 -72 -26 -137 -53 -126 -8 3 -15 1
-15 -5 0 -16 -61 -2 -82 18 -15 15 -19 35 -19 101 0 45 -5 84 -10 87 -5 4 -9
14 -9 24 0 10 -6 24 -13 30 -15 12 -24 -3 -64 -99 -21 -52 -97 -135 -139 -150
-15 -6 -39 -9 -51 -5 -22 5 -23 6 -8 41 17 41 20 130 5 139 -5 3 -10 13 -10
22 0 8 -21 36 -47 61 -45 43 -50 45 -107 45 -37 0 -61 -4 -64 -11 -2 -7 -12
-12 -22 -12 -22 0 -120 -96 -120 -116 0 -8 -4 -14 -10 -14 -5 0 -10 -8 -10
-18 0 -11 -9 -29 -19 -41 -11 -13 -21 -26 -23 -29 -2 -4 -18 -19 -36 -34 -24
-20 -45 -28 -73 -28 -56 0 -71 27 -76 143 -3 51 -9 96 -14 102 -5 5 -9 19 -9
32 0 13 -6 23 -14 23 -8 0 -16 5 -18 12 -2 6 -16 -4 -31 -24z m573 -32 c0 -2
-15 -6 -34 -8 -19 -2 -32 0 -30 4 5 8 64 12 64 4z m-80 -20 c0 -2 -7 -6 -15
-10 -8 -3 -15 -1 -15 4 0 6 7 10 15 10 8 0 15 -2 15 -4z m100 -32 c0 -3 -5
-14 -10 -25 -10 -18 -13 -70 -6 -134 3 -33 -27 -65 -57 -60 -9 2 -15 0 -12 -6
4 -5 0 -10 -7 -10 -7 -1 -20 -2 -28 -3 -18 -2 -70 21 -71 32 0 4 -2 16 -4 26
-11 60 70 175 118 167 4 0 7 4 7 9 0 6 16 10 35 10 19 0 35 -3 35 -6z m-1291
-29 c7 -7 12 -18 10 -24 -5 -13 -69 24 -69 40 0 13 39 2 59 -16z m-105 -52
c14 -26 36 -47 96 -93 21 -16 22 -19 7 -20 -10 0 -16 -4 -13 -9 3 -5 -8 -15
-26 -24 -28 -14 -35 -14 -64 1 -19 8 -32 18 -29 20 2 2 -3 11 -11 20 -13 12
-13 16 -2 23 8 6 9 9 1 9 -10 0 -11 30 -4 93 2 18 32 5 45 -20z"/>
</g>
</svg>
